<?xml version="1.0" encoding="UTF-8" standalone="no"?>
<svg
   xmlns:dc="http://purl.org/dc/elements/1.1/"
   xmlns:cc="http://creativecommons.org/ns#"
   xmlns:rdf="http://www.w3.org/1999/02/22-rdf-syntax-ns#"
   xmlns:svg="http://www.w3.org/2000/svg"
   xmlns="http://www.w3.org/2000/svg"
   xmlns:xlink="http://www.w3.org/1999/xlink"
   xmlns:sodipodi="http://sodipodi.sourceforge.net/DTD/sodipodi-0.dtd"
   xmlns:inkscape="http://www.inkscape.org/namespaces/inkscape"
   id="svg11300"
   viewBox="0 0 48 48"
   version="1.1"
   inkscape:version="0.48.4 r9939"
   width="100%"
   height="100%"
   sodipodi:docname="application.svg">
  <sodipodi:namedview
     pagecolor="#ffffff"
     bordercolor="#666666"
     borderopacity="1"
     objecttolerance="10"
     gridtolerance="10"
     guidetolerance="10"
     inkscape:pageopacity="0"
     inkscape:pageshadow="2"
     inkscape:window-width="1680"
     inkscape:window-height="984"
     id="namedview3042"
     showgrid="false"
     inkscape:zoom="15.479167"
     inkscape:cx="11.854643"
     inkscape:cy="24"
     inkscape:window-x="0"
     inkscape:window-y="27"
     inkscape:window-maximized="1"
     inkscape:current-layer="svg11300" />
  <defs
     id="defs3">
    <radialGradient
       id="radialGradient3262"
       gradientUnits="userSpaceOnUse"
       cy="39.161"
       cx="25.456"
       gradientTransform="matrix(1,0,0,0.31532,0,26.813)"
       r="19.622">
      <stop
         id="stop3258"
         offset="0" />
      <stop
         id="stop3260"
         stop-opacity="0"
         offset="1" />
    </radialGradient>
    <linearGradient
       id="linearGradient3281"
       x1="14.463"
       gradientUnits="userSpaceOnUse"
       y1="12.285"
       gradientTransform="matrix(1.2419,0,0,1.2419,-5.0275,-7.209)"
       x2="34.534"
       y2="39.685">
      <stop
         id="stop3266"
         stop-color="#c9c9c9"
         offset="0" />
      <stop
         id="stop3276"
         stop-color="#dbdbdb"
         offset="0.25"
         style="stop-color:#dbdbdb;stop-opacity:1;" />
      <stop
         id="stop3272"
         stop-color="#e2e2e2"
         offset=".5" />
      <stop
         id="stop3274"
         stop-color="#b0b0b0"
         offset=".75" />
      <stop
         id="stop3268"
         stop-color="#c9c9c9"
         offset="1" />
    </linearGradient>
    <linearGradient
       inkscape:collect="always"
       xlink:href="#linearGradient3281"
       id="linearGradient3047"
       gradientUnits="userSpaceOnUse"
       gradientTransform="matrix(1.2419,0,0,1.2419,-5.0275,-7.209)"
       x1="14.463"
       y1="12.285"
       x2="34.534"
       y2="39.685" />
    <radialGradient
       inkscape:collect="always"
       xlink:href="#radialGradient3262"
       id="radialGradient3050"
       gradientUnits="userSpaceOnUse"
       gradientTransform="matrix(1,0,0,0.31532,-0.88388,29.2879)"
       cx="25.456"
       cy="39.161"
       r="19.622" />
  </defs>
  <path
     inkscape:connector-curvature="0"
     d="m 44.19412,41.6359 a 19.622,6.1872 0 0 1 -39.244,0 19.622,6.1872 0 1 1 39.244,0 z"
     style="opacity:0.40909005;color:#000000;fill:url(#radialGradient3050)"
     id="path3254" />
  <path
     inkscape:connector-curvature="0"
     d="M 23.25,0.46875 C 22.785,0.5006 22.332,0.57268 21.875,0.625 H 21.844 L 20.75,6.5938 C 18.967,6.9997 17.29,7.6887 15.781,8.625 L 10.875,5.0938 C 9.5487,6.1234 8.3418,7.3243 7.2812,8.625 l 3.4068,4.969 c -1.0347,1.58 -1.8125,3.385 -2.2505,5.281 -10e-5,0.009 -10e-5,0.03 0,0.031 L 2.5,19.844 c -0.1086,0.886 -0.1562,1.803 -0.1562,2.718 0,0.75 0.0206,1.489 0.0937,2.219 l 5.9375,1.063 c 0.4223,2.062 1.2245,3.987 2.344,5.687 l -3.5315,4.844 c 1.0113,1.256 2.1789,2.399 3.4375,3.406 l 5,-3.437 c 1.747,1.114 3.698,1.896 5.813,2.281 l 0.937,5.906 c 0.666,0.061 1.349,0.063 2.031,0.063 0.963,0 1.882,-0.037 2.813,-0.156 l 1.125,-6.032 c 2.007,-0.499 3.893,-1.366 5.531,-2.531 l 4.813,3.5 c 1.248,-1.062 2.389,-2.282 3.374,-3.594 l -3.5,-5.062 c 0.948,-1.637 1.605,-3.443 1.938,-5.375 l 5.906,-0.938 c 0.052,-0.616 0.063,-1.214 0.063,-1.844 0,-1.094 -0.127,-2.167 -0.281,-3.218 l -6,-1.094 C 39.717,16.514 38.946,14.894 37.969,13.438 L 41.5,8.5938 C 40.405,7.2551 39.157,6.0186 37.781,4.9688 l -5.093,3.5 C 31.224,7.6029 29.648,6.9386 27.938,6.5625 L 27,0.625 C 26.147,0.52462 25.286,0.46875 24.406,0.46875 c -0.238,0 -0.482,-0.00748 -0.718,0 -0.116,0.00365 -0.229,-0.00669 -0.344,0 -0.031,0.00181 -0.063,-0.00212 -0.094,0 z m 0.812,15.187 c 0.115,-0.006 0.229,0 0.344,0 3.699,0 6.719,3.02 6.719,6.719 0,3.699 -3.02,6.687 -6.719,6.687 -3.699,0.001 -6.687,-2.988 -6.687,-6.687 0,-3.584 2.804,-6.539 6.343,-6.719 z"
     style="color:#000000;fill:url(#linearGradient3047);stroke:#808080"
     id="path3243" />
  <path
     inkscape:connector-curvature="0"
     d="m 32.129678,22.361059 a 7.7197866,7.7197866 0 0 1 -15.439573,0 7.7197866,7.7197866 0 1 1 15.439573,0 z"
     style="opacity:0.64772997;color:#000000;fill:none;stroke:#ffffff;stroke-width:1.00003016"
     id="path3283" />
  <path
     inkscape:connector-curvature="0"
     d="m 22.558,1.6501 -0.878,5.779 c -1.671,0.3806 -4.745,1.5444 -6.159,2.422 L 10.849,6.3639 C 9.6054,7.3291 9.5201,7.3945 8.5261,8.6137 l 3.3779,5.0103 c -0.969,1.481 -2.1337,4.121 -2.5518,6.008 0,0 -5.9194,0.998 -5.9194,0.998 -0.1017,0.831 -0.0528,2.609 0.0157,3.294 l 5.6542,1.018 c 0.3958,1.933 1.8773,5.044 2.9263,6.637 l -3.5757,4.724 c 0.9479,1.177 1.1377,1.285 2.3177,2.229 l 4.781,-3.502 c 1.638,1.044 4.889,2.315 6.871,2.676 l 0.784,5.707 c 0.625,0.056 2.35,0.216 3.222,0.104 l 0.878,-5.941 c 1.882,-0.468 5.133,-1.803 6.668,-2.895 l 4.776,3.451 c 1.17,-0.995 1.181,-1.145 2.105,-2.374 l -3.539,-5.031 c 0.888,-1.534 2.037,-4.535 2.349,-6.346 L 45.46,23.42 c 0.049,-0.578 0.051,-2.189 -0.093,-3.175 L 39.463,19.226 C 39.022,17.599 37.51,14.666 36.594,13.301 L 40.346,8.5773 C 39.32,7.3226 38.939,7.1504 37.65,6.1664 L 32.707,9.7056 C 31.335,8.894 28.599,7.6569 26.995,7.3044 L 26.122,1.6501 c -0.8,-0.0941 -3.107,-0.0523 -3.564,0 z"
     style="opacity:0.34659005;color:#000000;fill:none;stroke:#ffffff"
     id="path3285" />
  <metadata
     id="metadata3040">
    <rdf:RDF>
      <cc:Work>
        <dc:format>image/svg+xml</dc:format>
        <dc:type
           rdf:resource="http://purl.org/dc/dcmitype/StillImage" />
        <cc:license
           rdf:resource="http://creativecommons.org/licenses/publicdomain/" />
        <dc:publisher>
          <cc:Agent
             rdf:about="http://openclipart.org/">
            <dc:title>Openclipart</dc:title>
          </cc:Agent>
        </dc:publisher>
        <dc:title>tango emblem system</dc:title>
        <dc:date>2010-03-29T15:50:09</dc:date>
        <dc:description>&quot;System&quot; icon from http://tango.freedesktop.org/Tango_Desktop_Project \n\n\nSince version 0.8.90 Tango Project icons are Public Domain: http://tango.freedesktop.org/Frequently_Asked_Questions#Terms_of_Use.3F</dc:description>
        <dc:source>http://openclipart.org/detail/35533/tango-emblem-system-by-warszawianka</dc:source>
        <dc:creator>
          <cc:Agent>
            <dc:title>warszawianka</dc:title>
          </cc:Agent>
        </dc:creator>
        <dc:subject>
          <rdf:Bag>
            <rdf:li>clip art</rdf:li>
            <rdf:li>clipart</rdf:li>
            <rdf:li>externalsource</rdf:li>
            <rdf:li>gear</rdf:li>
            <rdf:li>icon</rdf:li>
            <rdf:li>metal</rdf:li>
            <rdf:li>tango</rdf:li>
          </rdf:Bag>
        </dc:subject>
      </cc:Work>
      <cc:License
         rdf:about="http://creativecommons.org/licenses/publicdomain/">
        <cc:permits
           rdf:resource="http://creativecommons.org/ns#Reproduction" />
        <cc:permits
           rdf:resource="http://creativecommons.org/ns#Distribution" />
        <cc:permits
           rdf:resource="http://creativecommons.org/ns#DerivativeWorks" />
      </cc:License>
    </rdf:RDF>
  </metadata>
</svg>
