<?xml version="1.0" encoding="UTF-8" standalone="no"?>
<!-- Created with Inkscape (http://www.inkscape.org/) -->

<svg
   xmlns:dc="http://purl.org/dc/elements/1.1/"
   xmlns:cc="http://creativecommons.org/ns#"
   xmlns:rdf="http://www.w3.org/1999/02/22-rdf-syntax-ns#"
   xmlns:svg="http://www.w3.org/2000/svg"
   xmlns="http://www.w3.org/2000/svg"
   xmlns:sodipodi="http://sodipodi.sourceforge.net/DTD/sodipodi-0.dtd"
   xmlns:inkscape="http://www.inkscape.org/namespaces/inkscape"
   width="81.41407"
   height="110.10156"
   id="svg3225"
   version="1.1"
   inkscape:version="0.48.4 r9939"
   sodipodi:docname="Nuevo documento 10">
  <defs
     id="defs3227" />
  <sodipodi:namedview
     id="base"
     pagecolor="#ffffff"
     bordercolor="#666666"
     borderopacity="1.0"
     inkscape:pageopacity="0.0"
     inkscape:pageshadow="2"
     inkscape:zoom="0.98994949"
     inkscape:cx="78.950616"
     inkscape:cy="-93.274242"
     inkscape:document-units="px"
     inkscape:current-layer="layer1"
     showgrid="false"
     fit-margin-top="2"
     fit-margin-left="2"
     fit-margin-right="2"
     fit-margin-bottom="2"
     inkscape:window-width="1680"
     inkscape:window-height="984"
     inkscape:window-x="0"
     inkscape:window-y="27"
     inkscape:window-maximized="1" />
  <metadata
     id="metadata3230">
    <rdf:RDF>
      <cc:Work
         rdf:about="">
        <dc:format>image/svg+xml</dc:format>
        <dc:type
           rdf:resource="http://purl.org/dc/dcmitype/StillImage" />
        <dc:title></dc:title>
      </cc:Work>
    </rdf:RDF>
  </metadata>
  <g
     inkscape:label="Capa 1"
     inkscape:groupmode="layer"
     id="layer1"
     transform="translate(-423.88058,-412.83203)">
    <g
       style="font-size:144px;font-style:italic;font-variant:normal;font-weight:normal;font-stretch:normal;line-height:125%;letter-spacing:0px;word-spacing:0px;fill:#000000;fill-opacity:1;stroke:none;font-family:Abyssinica SIL;-inkscape-font-specification:Abyssinica SIL Italic"
       id="text3233">
      <path
         d="m 470.10715,520.93359 1.125,-5.625 5.97656,-0.42187 c 0.89057,-0.0937 1.68744,-0.42187 2.39062,-0.98438 0.74995,-0.56249 1.2187,-1.28905 1.40625,-2.17968 l 7.45313,-37.125 c 0.42181,-2.06246 0.56243,-3.96089 0.42187,-5.69532 -0.0938,-1.73432 -0.56256,-3.23432 -1.40625,-4.5 -0.84381,-1.26556 -2.10943,-2.24994 -3.79687,-2.95312 -1.68756,-0.74994 -3.91412,-1.12494 -6.67969,-1.125 -1.26568,6e-5 -2.62505,0.11725 -4.07812,0.35156 -1.4063,0.18756 -2.85942,0.46881 -4.35938,0.84375 -1.45317,0.37506 -2.88285,0.82037 -4.28906,1.33594 -1.35942,0.51568 -2.6016,1.05474 -3.72656,1.61719 l -9.49219,47.25 c -0.18753,0.89063 -0.0703,1.61719 0.35156,2.17968 0.42185,0.56251 1.05466,0.89063 1.89844,0.98438 l 6.11719,0.42187 -1.125,5.625 -32.41407,0 1.125,-5.625 6.96094,-0.42187 c 0.93749,-0.0937 1.73436,-0.42187 2.39063,-0.98438 0.65623,-0.56249 1.07811,-1.28905 1.26562,-2.17968 l 17.29688,-86.55469 -10.75782,0 0.98438,-4.78125 19.54687,-5.55469 5.76563,0 -8.78906,43.875 c 1.45308,-0.79681 3.23433,-1.71087 5.34375,-2.74219 2.1562,-1.03118 4.4062,-1.99212 6.75,-2.88281 2.39057,-0.93743 4.75775,-1.71087 7.10156,-2.32031 2.34369,-0.65618 4.45306,-0.98431 6.32812,-0.98438 2.76556,7e-5 5.24994,0.44539 7.45313,1.33594 2.20305,0.8907 4.00774,2.22663 5.41406,4.00781 1.40617,1.78132 2.32024,4.05475 2.74219,6.82032 0.46867,2.7188 0.32804,5.92974 -0.42188,9.63281 l -8.01562,40.14844 c -0.18757,0.89063 -0.0235,1.61719 0.49219,2.17968 0.56242,0.56251 1.24211,0.89063 2.03906,0.98438 l 6.39844,0.42187 -1.125,5.625 -32.0625,0"
         id="path3238"
         inkscape:connector-curvature="0" />
    </g>
  </g>
</svg>
