<?xml version="1.0" encoding="UTF-8" standalone="no"?>
<!-- Created with Inkscape (http://www.inkscape.org/) -->

<svg
   xmlns:dc="http://purl.org/dc/elements/1.1/"
   xmlns:cc="http://creativecommons.org/ns#"
   xmlns:rdf="http://www.w3.org/1999/02/22-rdf-syntax-ns#"
   xmlns:svg="http://www.w3.org/2000/svg"
   xmlns="http://www.w3.org/2000/svg"
   xmlns:sodipodi="http://sodipodi.sourceforge.net/DTD/sodipodi-0.dtd"
   xmlns:inkscape="http://www.inkscape.org/namespaces/inkscape"
   width="149.6875"
   height="215.95563"
   id="svg3259"
   version="1.1"
   inkscape:version="0.48.4 r9939"
   sodipodi:docname="Nuevo documento 12">
  <defs
     id="defs3261" />
  <sodipodi:namedview
     id="base"
     pagecolor="#ffffff"
     bordercolor="#666666"
     borderopacity="1.0"
     inkscape:pageopacity="0.0"
     inkscape:pageshadow="2"
     inkscape:zoom="0.35"
     inkscape:cx="196.3125"
     inkscape:cy="-14.710553"
     inkscape:document-units="px"
     inkscape:current-layer="layer1"
     showgrid="false"
     fit-margin-top="2"
     fit-margin-left="2"
     fit-margin-right="2"
     fit-margin-bottom="2"
     inkscape:window-width="1680"
     inkscape:window-height="984"
     inkscape:window-x="0"
     inkscape:window-y="27"
     inkscape:window-maximized="1" />
  <metadata
     id="metadata3264">
    <rdf:RDF>
      <cc:Work
         rdf:about="">
        <dc:format>image/svg+xml</dc:format>
        <dc:type
           rdf:resource="http://purl.org/dc/dcmitype/StillImage" />
        <dc:title></dc:title>
      </cc:Work>
    </rdf:RDF>
  </metadata>
  <g
     inkscape:label="Capa 1"
     inkscape:groupmode="layer"
     id="layer1"
     transform="translate(-153.6875,-301.696)">
    <g
       style="font-size:144px;font-style:normal;font-variant:normal;font-weight:normal;font-stretch:normal;line-height:75.99999905%;letter-spacing:0px;word-spacing:0px;fill:#000000;fill-opacity:1;stroke:none;font-family:Abyssinica SIL;-inkscape-font-specification:Abyssinica SIL"
       id="flowRoot3267">
      <path
         d="m 221.35937,311.92256 -25.17187,62.92969 -9.35156,0 -23.20313,-62.92969 -7.94531,-0.84375 0,-5.625 31.85156,0 0,5.625 -6.89062,0.42188 c -0.7969,0.0938 -1.42971,0.44537 -1.89844,1.05468 -0.46877,0.60944 -0.56252,1.31257 -0.28125,2.10938 l 16.10156,45.07031 17.71875,-45.07031 c 0.32807,-0.74994 0.28119,-1.42963 -0.14062,-2.03906 -0.42193,-0.65619 -1.03131,-1.03119 -1.82813,-1.125 l -6.46875,-0.42188 0,-5.625 25.17188,0 0,5.625 -7.66407,0.84375"
         id="path3282"
         inkscape:connector-curvature="0" />
      <path
         d="m 280.07031,374.85225 -1.89844,-8.50781 c -2.53129,1.92188 -5.13285,3.63281 -7.80468,5.13281 -1.17192,0.65625 -2.4141,1.28906 -3.72657,1.89844 -1.31253,0.60937 -2.6719,1.14843 -4.07812,1.61718 -1.35941,0.51563 -2.76565,0.91407 -4.21875,1.19532 -1.40628,0.28124 -2.81253,0.42187 -4.21875,0.42187 -2.62502,0 -5.08596,-0.44531 -7.38281,-1.33594 -2.25002,-0.89062 -4.21876,-2.17968 -5.90625,-3.86718 -1.68751,-1.6875 -3.02345,-3.72656 -4.00782,-6.11719 -0.9375,-2.39061 -1.40625,-5.10936 -1.40625,-8.15625 0,-1.78123 0.16406,-3.46873 0.49219,-5.0625 0.375,-1.59373 1.10156,-3.1406 2.17969,-4.64063 1.07812,-1.49997 2.57811,-2.92965 4.5,-4.28906 1.96874,-1.40622 4.52342,-2.78903 7.66406,-4.14844 3.18748,-1.35933 7.05466,-2.69527 11.60156,-4.00781 4.59372,-1.35933 10.03121,-2.71871 16.3125,-4.07812 l 0,-6.1875 c -4e-5,-4.82807 -1.07817,-8.39057 -3.23437,-10.6875 -2.15629,-2.34369 -5.55473,-3.51556 -10.19531,-3.51563 -2.53128,7e-5 -4.68753,0.23444 -6.46875,0.70313 -1.78128,0.46881 -3.02346,0.84381 -3.72657,1.125 l 0,12.51562 -10.47656,0 c -0.65626,5e-5 -1.31251,-0.0468 -1.96875,-0.14062 -0.60938,-0.0937 -1.17188,-0.2812 -1.6875,-0.5625 -0.51563,-0.32808 -0.93751,-0.74995 -1.26562,-1.26563 -0.28126,-0.56245 -0.42189,-1.28901 -0.42188,-2.17969 -1e-5,-2.95306 0.89062,-5.48431 2.67188,-7.59375 1.78123,-2.15618 4.10154,-3.93743 6.96093,-5.34375 2.85936,-1.40618 6.07029,-2.43743 9.63282,-3.09375 3.56247,-0.65618 7.12496,-0.9843 10.6875,-0.98437 4.45308,7e-5 8.13276,0.53913 11.03906,1.61719 2.95307,1.07819 5.27338,2.57819 6.96094,4.5 1.73431,1.92193 2.95306,4.19537 3.65625,6.82031 0.70306,2.62505 1.05462,5.50786 1.05468,8.64844 l 0,40.35937 c -6e-5,0.89063 0.28119,1.6172 0.84375,2.17969 0.60932,0.56251 1.33588,0.89063 2.17969,0.98437 l 6.96094,0.42188 0,5.625 -21.30469,0 m -1.89844,-38.46094 c -6.46879,1.64066 -11.60159,3.25785 -15.39843,4.85156 -3.79691,1.59379 -6.67972,3.21097 -8.64844,4.85157 -1.9219,1.59377 -3.16408,3.2344 -3.72656,4.92187 -0.51565,1.64065 -0.77346,3.35158 -0.77344,5.13281 -2e-5,1.50002 0.23436,2.97658 0.70312,4.42969 0.51561,1.40626 1.21873,2.67189 2.10938,3.79688 0.93748,1.12501 2.06248,2.03907 3.375,2.74218 1.35935,0.65626 2.90622,0.98439 4.64062,0.98438 1.92185,10e-6 3.91403,-0.35156 5.97657,-1.05469 2.10933,-0.70311 4.03121,-1.47655 5.76562,-2.32031 2.01558,-0.98436 4.00777,-2.1328 5.97656,-3.44531 l 0,-24.89063"
         id="path3284"
         inkscape:connector-curvature="0" />
      <path
         d="m 229.86719,448.5735 c -8e-5,5.67191 -0.84383,10.82815 -2.53125,15.46875 -1.6407,4.59377 -4.03132,8.53126 -7.17188,11.8125 -3.09381,3.23438 -6.91412,5.74219 -11.46094,7.52344 -4.50004,1.78125 -9.58598,2.67187 -15.25781,2.67187 -1.31254,0 -2.71878,-0.0703 -4.21875,-0.21093 -1.50003,-0.0937 -2.88284,-0.23438 -4.14844,-0.42188 -1.50002,-0.1875 -2.97659,-0.42187 -4.42968,-0.70312 l 0,21.44531 c -3e-5,0.8906 0.30466,1.59373 0.91406,2.10937 0.60935,0.5156 1.35935,0.82029 2.25,0.91407 l 8.50781,0.91406 0,5.55469 -35.01562,0 0,-5.55469 6.89062,-0.91406 c 0.89062,-0.0938 1.61718,-0.39847 2.17969,-0.91407 0.56249,-0.51564 0.84374,-1.21877 0.84375,-2.10937 l 0,-81.07031 -9.91406,0 0,-4.71094 17.71875,-5.48438 5.625,0 0,7.17188 c 2.06247,-1.64056 4.26559,-3.11712 6.60937,-4.42969 2.01559,-1.12493 4.3359,-2.15618 6.96094,-3.09375 2.62496,-0.93743 5.3437,-1.40618 8.15625,-1.40625 3.70307,7e-5 7.21869,0.84382 10.54687,2.53125 3.32807,1.68757 6.23432,4.07819 8.71875,7.17188 2.53119,3.0938 4.52337,6.82036 5.97657,11.17968 1.49992,4.35942 2.24992,9.21098 2.25,14.55469 m -14.41407,2.03906 c -6e-5,-3.70308 -0.44537,-7.19527 -1.33593,-10.47656 -0.84381,-3.32808 -2.10944,-6.23432 -3.79688,-8.71875 -1.68755,-2.53119 -3.79692,-4.52338 -6.32812,-5.97656 -2.48442,-1.45307 -5.36723,-2.17963 -8.64844,-2.17969 -1.82816,6e-5 -3.63285,0.23444 -5.41406,0.70313 -1.73441,0.46881 -3.28128,0.96099 -4.64063,1.47656 -1.59378,0.60943 -3.14065,1.31256 -4.64062,2.10937 l 0,49.57032 c 1.12497,0.42188 2.32028,0.79688 3.58593,1.125 1.0781,0.28125 2.32029,0.53906 3.72657,0.77343 1.40621,0.23438 2.85934,0.35157 4.35937,0.35157 3.93746,0 7.35933,-0.79687 10.26563,-2.39063 2.9062,-1.59374 5.29682,-3.70311 7.17187,-6.32812 1.92182,-2.67186 3.35151,-5.74217 4.28906,-9.21094 0.93744,-3.46872 1.40619,-7.0781 1.40625,-10.82813"
         id="path3286"
         inkscape:connector-curvature="0" />
      <path
         d="m 266.07812,391.12819 c -3e-5,1.21884 -0.2344,2.39071 -0.70312,3.51562 -0.42191,1.07822 -1.03128,2.01572 -1.82813,2.8125 -0.7969,0.79697 -1.7344,1.42978 -2.8125,1.89844 -1.03127,0.46884 -2.15627,0.70321 -3.375,0.70313 -1.21877,8e-5 -2.39064,-0.23429 -3.51562,-0.70313 -1.07814,-0.46866 -2.01564,-1.10147 -2.8125,-1.89844 -0.79689,-0.79678 -1.4297,-1.73428 -1.89844,-2.8125 -0.46876,-1.12491 -0.70314,-2.29678 -0.70312,-3.51562 -2e-5,-1.21866 0.23436,-2.36709 0.70312,-3.44531 0.46874,-1.07803 1.10155,-2.01553 1.89844,-2.8125 0.79686,-0.79678 1.73436,-1.40615 2.8125,-1.82813 1.12498,-0.46865 2.29685,-0.70302 3.51562,-0.70312 1.21873,10e-5 2.34373,0.23447 3.375,0.70312 1.0781,0.42198 2.0156,1.03135 2.8125,1.82813 0.79685,0.79697 1.40622,1.73447 1.82813,2.8125 0.46872,1.07822 0.70309,2.22665 0.70312,3.44531 m -26.4375,93.16406 0,-5.625 7.03125,-0.42187 c 0.89062,-0.0937 1.61718,-0.42187 2.17969,-0.98438 0.56249,-0.56249 0.84374,-1.28905 0.84375,-2.17969 l 0,-51.39843 -9.91406,0 0,-5.0625 17.57812,-5.48438 5.69532,0 0,61.94531 c -3e-5,0.89064 0.28122,1.6172 0.84375,2.17969 0.60934,0.56251 1.3359,0.89063 2.17968,0.98438 l 7.38282,0.42187 0,5.625 -33.82032,0"
         id="path3288"
         inkscape:connector-curvature="0" />
    </g>
  </g>
</svg>
