<?xml version="1.0" encoding="UTF-8" standalone="no"?>
<!-- made by Andy, It's public domain,  yeah why not-->

<svg
   xmlns:dc="http://purl.org/dc/elements/1.1/"
   xmlns:cc="http://creativecommons.org/ns#"
   xmlns:rdf="http://www.w3.org/1999/02/22-rdf-syntax-ns#"
   xmlns:svg="http://www.w3.org/2000/svg"
   xmlns="http://www.w3.org/2000/svg"
   xmlns:xlink="http://www.w3.org/1999/xlink"
   xmlns:sodipodi="http://sodipodi.sourceforge.net/DTD/sodipodi-0.dtd"
   xmlns:inkscape="http://www.inkscape.org/namespaces/inkscape"
   id="svg4895"
   sodipodi:docname="full_build.svg"
   sodipodi:modified="true"
   viewBox="0 0 128 128"
   sodipodi:version="0.32"
   version="1.0"
   inkscape:output_extension="org.inkscape.output.svg.inkscape"
   inkscape:version="0.91 r13725">
  <sodipodi:namedview
     id="base"
     bordercolor="#666666"
     inkscape:pageshadow="2"
     guidetolerance="10.0"
     pagecolor="#ffffff"
     gridtolerance="10.0"
     inkscape:zoom="2.9609375"
     objecttolerance="10.0"
     borderopacity="1.0"
     inkscape:current-layer="svg4895"
     inkscape:cx="64"
     inkscape:cy="63.831135"
     inkscape:window-y="27"
     inkscape:window-x="0"
     inkscape:window-height="1016"
     inkscape:pageopacity="0.0"
     inkscape:window-width="1920"
     showgrid="false"
     inkscape:window-maximized="1" />
  <defs
     id="defs3">
    <linearGradient
       id="WhiteTransparent">
      <stop
         id="stop6"
         style="stop-color:white"
         offset="0" />
      <stop
         id="stop8"
         style="stop-color:white;stop-opacity:0"
         offset="1" />
    </linearGradient>
    <linearGradient
       id="BlackTransparent">
      <stop
         id="stop11"
         style="stop-color:black"
         offset="0" />
      <stop
         id="stop13"
         style="stop-color:black;stop-opacity:0"
         offset="1" />
    </linearGradient>
    <clipPath
       id="clipoutline2"
       clipPathUnits="userSpaceOnUse">
      <path
         id="outline2"
         d="m55.8 12l0.76 0.16c8.84-2.94 28.68 8.64 24.26 18.96-1.12 1.62-0.93 4.5 0.42 6.31l-24.81 24.82c-1.39-1.39-4.48-1.36-5.9 0l-41.03 39.38c-3.74 3.59-0.8 6.64 0.78 8.25l7.36 7.36c1.61 1.6 5.86 3.76 8.88 0.56l38.72-40.81c1.35-1.42 1.36-4.47 0-5.87 0 0 0.01-0.02 0-0.02l24.91-24.9c2.63 2.37 5.114 2.575 7.47 1.93 4.55-1.245 7.09 3.207 9.81 6.46l-1.23 1.21c-1.82 1.84-1.65 4.94 0.39 6.98s5.15 2.21 6.97 0.39l8.14-8.13c1.82-1.84 1.65-4.94-0.4-6.97-1.84-1.85-4.51-2.09-6.37-0.77-5.58-6.26-2.65-7.2-10.01-15.35l-13.79-14.09c-9.93-9.74-22.83-9.73-35.33-5.86z" />
    </clipPath>
    <!-- -->
    <linearGradient
       id="linearGradient2646"
       y2="6037.5"
       xlink:href="#BlackTransparent"
       gradientUnits="userSpaceOnUse"
       x2="2375.5"
       y1="6145.3"
       x1="2483"
       inkscape:collect="always" />
    <linearGradient
       id="linearGradient2648"
       y2="124"
       xlink:href="#WhiteTransparent"
       gradientUnits="userSpaceOnUse"
       x2="626.1"
       gradientTransform="matrix(.0775 .0775 -.36 .36 78.84 -44.8)"
       y1="124"
       x1="577.03"
       inkscape:collect="always" />
    <linearGradient
       id="linearGradient2650"
       y2="368.27"
       xlink:href="#WhiteTransparent"
       gradientUnits="userSpaceOnUse"
       x2="146.15"
       gradientTransform="matrix(.3 .3 -.09 .09 78.84 -44.8)"
       y1="288.57"
       x1="146.15"
       inkscape:collect="always" />
    <linearGradient
       id="linearGradient2652"
       y2="-1.72"
       xlink:href="#WhiteTransparent"
       gradientUnits="userSpaceOnUse"
       x2="258.96"
       gradientTransform="matrix(.33 .33 -.0944 .0944 9.03 -48.1)"
       y1="62.74"
       x1="258.96"
       inkscape:collect="always" />
    <linearGradient
       id="linearGradient2654"
       y2="286.56"
       xlink:href="#BlackTransparent"
       gradientUnits="userSpaceOnUse"
       x2="419.88"
       gradientTransform="matrix(.0998 .0998 -.28 .28 78.84 -44.8)"
       y1="286.56"
       x1="543.1"
       inkscape:collect="always" />
    <linearGradient
       id="linearGradient2656"
       y2="254.83"
       xlink:href="#WhiteTransparent"
       gradientUnits="userSpaceOnUse"
       x2="615.59"
       gradientTransform="matrix(.0807 .0775 -.35 .36 77.14 -45.89)"
       y1="254.36"
       x1="512.7"
       inkscape:collect="always" />
    <linearGradient
       id="linearGradient2658"
       y2="118.3"
       xlink:href="#WhiteTransparent"
       gradientUnits="userSpaceOnUse"
       x2="638.3"
       gradientTransform="matrix(.1 .1 -.22 .2 75.6 -33.53)"
       y1="69.99"
       x1="637.03"
       inkscape:collect="always" />
    <linearGradient
       id="linearGradient15309"
       y2="27.235001"
       gradientUnits="userSpaceOnUse"
       x2="2.007"
       gradientTransform="matrix(1.1766945,0,0,1.1767047,66.553392,49.043358)"
       y1="28.122999"
       x1="10.615"
       inkscape:collect="always">
      <stop
         id="stop15305"
         style="stop-color:#b30000"
         offset="0" />
      <stop
         id="stop15311"
         style="stop-color:#ff5c5c"
         offset=".5" />
      <stop
         id="stop15307"
         style="stop-color:#c30000"
         offset="1" />
    </linearGradient>
    <linearGradient
       id="linearGradient8582"
       y2="16.235001"
       gradientUnits="userSpaceOnUse"
       x2="17.774"
       gradientTransform="matrix(1.0149,0,0,1.0059,85.190207,13.242031)"
       y1="19.591999"
       x1="11.997"
       inkscape:collect="always">
      <stop
         id="stop8578"
         style="stop-color:#dac203"
         offset="0" />
      <stop
         id="stop8584"
         style="stop-color:#fdec69"
         offset=".5" />
      <stop
         id="stop8580"
         style="stop-color:#fdef7e"
         offset="1" />
    </linearGradient>
    <linearGradient
       id="linearGradient7996"
       y2="29"
       xlink:href="#linearGradient5739"
       gradientUnits="userSpaceOnUse"
       x2="14.045"
       gradientTransform="matrix(0.86603,-0.5,0.86149,1.4921,67.641907,-0.52877919)"
       y1="34.011002"
       x1="16.929001"
       inkscape:collect="always" />
    <linearGradient
       id="linearGradient5739"
       inkscape:collect="always">
      <stop
         id="stop5741"
         style="stop-color:#c4a000"
         offset="0" />
      <stop
         id="stop5743"
         style="stop-color:#c4a000;stop-opacity:0"
         offset="1" />
    </linearGradient>
    <linearGradient
       id="linearGradient7994"
       y2="29"
       xlink:href="#linearGradient5739"
       gradientUnits="userSpaceOnUse"
       x2="14.045"
       gradientTransform="matrix(0.86603,-0.5,0.8013,1.3879,72.703907,2.2372208)"
       y1="37.576"
       x1="14.045"
       inkscape:collect="always" />
    <linearGradient
       id="linearGradient7992"
       y2="29"
       xlink:href="#linearGradient5739"
       gradientUnits="userSpaceOnUse"
       x2="14.045"
       gradientTransform="matrix(0.86603,-0.5,0.84348,1.4609,65.780907,2.2482208)"
       y1="36.967999"
       x1="15.097"
       inkscape:collect="always" />
    <linearGradient
       id="linearGradient7990"
       y2="29.909"
       xlink:href="#linearGradient5739"
       gradientUnits="userSpaceOnUse"
       x2="18.486"
       gradientTransform="matrix(0.86603,-0.5,0.79796,1.3821,69.792907,4.1047208)"
       y1="39.252998"
       x1="19.615999"
       inkscape:collect="always" />
    <linearGradient
       id="linearGradient7988"
       y2="30.141001"
       xlink:href="#linearGradient5739"
       gradientUnits="userSpaceOnUse"
       x2="10.147"
       gradientTransform="matrix(0.86603,-0.5,0.79749,1.3813,69.822907,4.1571208)"
       y1="38.827999"
       x1="9.1054001"
       inkscape:collect="always" />
    <radialGradient
       id="radialGradient9318"
       gradientUnits="userSpaceOnUse"
       cy="19.541"
       cx="20.764"
       gradientTransform="matrix(0.4494,-0.21649,0.56442,1.1716,84.089607,15.928321)"
       r="14.8"
       inkscape:collect="always">
      <stop
         id="stop9322"
         style="stop-color:#fef088"
         offset="0" />
      <stop
         id="stop9324"
         style="stop-color:#fde63a"
         offset=".5" />
      <stop
         id="stop9326"
         style="stop-color:#dac203"
         offset="1" />
    </radialGradient>
    <linearGradient
       gradientTransform="translate(85.521907,13.382221)"
       id="linearGradient2249"
       y2="14.2"
       gradientUnits="userSpaceOnUse"
       x2="14.767"
       y1="6.9526"
       x1="9.5621996"
       inkscape:collect="always">
      <stop
         id="stop2245"
         style="stop-color:#ffffff"
         offset="0" />
      <stop
         id="stop2247"
         style="stop-color:#ffffff;stop-opacity:0"
         offset="1" />
    </linearGradient>
    <linearGradient
       id="linearGradient11653"
       y2="17.111"
       gradientUnits="userSpaceOnUse"
       x2="16.871"
       gradientTransform="matrix(0.96593,0.2621,-0.25882,0.97818,88.479007,7.4425209)"
       y1="12.363"
       x1="12.233"
       inkscape:collect="always">
      <stop
         id="stop11649"
         style="stop-color:#c17d10"
         offset="0" />
      <stop
         id="stop11651"
         style="stop-color:#9b650c"
         offset="1" />
    </linearGradient>
    <radialGradient
       id="radialGradient3564"
       gradientUnits="userSpaceOnUse"
       cy="30.857"
       cx="22.570999"
       gradientTransform="matrix(1.4358,0,0,0.53784447,80.471407,35.697102)"
       r="15.571"
       inkscape:collect="always">
      <stop
         id="stop3560"
         style="stop-color:#000000"
         offset="0" />
      <stop
         id="stop3562"
         style="stop-color:#000000;stop-opacity:0"
         offset="1" />
    </radialGradient>
  </defs>
  <style
     id="style31"
     type="text/css">/* Specular Highlighting */
		.low-specularity	{opacity:0.25;}
		.specularity		{opacity:0.5;}
		.high-specularity	{opacity:0.75;}
		.full-specularity	{opacity:1;}
	/* Shading */
		.low-shade	{opacity:0.25;}
		.shade		{opacity:0.5;}
		.high-shade	{opacity:0.75;}
		.full-shade	{opacity:1;}
	/* Tango palette fill/stroke */
		.black		{fill:#000;}
		.aluminium1	{fill:#eeeeec;}
		.aluminium2	{fill:#d3d7cf;}
		.aluminium6	{fill:#2e3436;}
		.chocolate3	{fill:#8f5902;}
		.chocolate2	{fill:#c17d11;}
		.aluminium4	{fill:#888a85;}
	/* Shadows: Back-Shadows &amp; Base Shadows */
		.base-shadow	{opacity:0.4;}
		.outline-big	{stroke:black;stroke-width:8;opacity:0.25;stroke-linejoin:round;}
		.outline-small	{stroke:black;stroke-width:4;opacity:0.5;stroke-linejoin:round;}
		.stroke-highlight	{fill:none;stroke:white;stroke-opacity:0.2;stroke-width:4;stroke-linejoin:round;}</style>
  <g
     id="hammer"
     transform="translate(-1.0132 -1.3509)">
    <use
       id="use50"
       style="opacity:.25;stroke-linejoin:round;stroke:black;stroke-width:8"
       class="outline-big"
       xlink:href="#outline2"
       height="128"
       width="128"
       y="0"
       x="0" />
    <use
       id="use52"
       style="opacity:.5;stroke-linejoin:round;stroke:black;stroke-width:4"
       class="outline-small stroke-aluminium5"
       xlink:href="#outline2"
       height="128"
       width="128"
       y="0"
       x="0" />
    <path
       id="path54"
       class="aluminium2"
       style="fill:#d3d7cf"
       d="m82.92 35.75l-29.45 29.45 8.83 8.83 29.45-29.44-8.83-8.84z" />
    <path
       id="path56"
       class="specularity"
       style="opacity:.5;fill:url(#linearGradient2646)"
       d="m88.93 41.76l-29.45 29.44 2.82 2.83 29.45-29.44-2.82-2.83z" />
    <path
       id="path58"
       style="fill:url(#linearGradient2648)"
       d="m86.46 37.04l-29.33 29.33 3.79 3.79 28.58-30.08-3.04-3.04z" />
    <path
       id="path60"
       class="aluminium6"
       style="fill:#2e3436"
       d="m55.8 12l0.76 0.16c8.84-2.94 28.68 8.64 24.26 18.96-1.12 1.62-0.93 4.5 0.42 6.31l8.91 8.77c2.63 2.37 5.11 2.57 7.47 1.93 4.55-1.23 7.08 3.2 9.81 6.46l-1.23 1.21c-1.82 1.84-1.65 4.94 0.39 6.98s5.15 2.21 6.97 0.39l8.14-8.13c1.82-1.84 1.65-4.94-0.4-6.97-1.84-1.85-4.51-2.09-6.37-0.77-5.58-6.26-2.65-7.2-10.01-15.35l-13.79-14.09c-9.93-9.74-22.83-9.73-35.33-5.86z" />
    <path
       id="path62"
       class="specularity"
       style="opacity:.5;fill:url(#linearGradient2650)"
       d="m114.93 47.3c-5.58-6.26-2.65-7.2-10.01-15.35l-13.79-14.09c-5.69-5.58-12.36-7.96-19.36-8.26l41.13 41.53 2.98-2.73-0.95-1.1z" />
    <path
       id="path64"
       class="low-specularity"
       style="opacity:.5;fill:url(#linearGradient2652)"
       d="m81.45 28c0.05 1-0.179 2-0.65 3.12-1.1 1.62-0.91 4.5 0.44 6.31l8.91 8.77c2.63 2.37 5.11 2.57 7.47 1.93 1.08-0.33 2.06-0.27 2.98 0 2.8 0.77-19.16-20.55-19.15-20.23v0.1z" />
    <path
       id="path66"
       style="fill:#3465a4"
       d="m56.43 62.25c-1.39-1.39-4.48-1.36-5.9 0l-41.03 39.38c-3.74 3.59-0.82 6.64 0.78 8.25l7.36 7.36c1.61 1.6 5.86 3.76 8.88 0.56l38.72-40.81c1.35-1.42 1.36-4.47 0-5.87 0 0 0.01-0.02 0-0.02l-8.81-8.85z" />
    <path
       id="path68"
       class="low-shade"
       style="opacity:.5;fill:url(#linearGradient2654)"
       d="m10.27 109.87l7.36 7.37c1.61 1.6 5.73 3.89 8.75 0.71l38.87-40.97c1.35-1.43 1.39-4.5 0-5.88l-8.83-8.84-46.15 47.61z" />
    <path
       id="path70"
       class="specularity"
       style="opacity:.5;fill:url(#linearGradient2656)"
       d="m51.2 65.7l-38.88 38.04c-1.62 1.56-1.07 3.75 0.1 4.89l4.13 3.97 42.37-43.6-3.92-3.68c-0.84-0.8-2.8-0.57-3.8 0.38z" />
    <use
       id="use72"
       style="stroke-linejoin:round;stroke:white;stroke-width:4;stroke-opacity:.2;fill:none"
       clip-path="url(#clipoutline2)"
       class="stroke-highlight"
       xlink:href="#outline2"
       height="128"
       width="128"
       y="0"
       x="0" />
    <path
       id="path74"
       style="fill:url(#linearGradient2658)"
       d="m120.45 49.26c1.51 1.44 1.8 3.44-0.28 5.36l-3.87 3.63c-2.08 1.95-7.52-3.25-5.45-5.19l3.88-3.63c2.07-1.95 4.21-1.61 5.72-0.17z" />
  </g>
  <metadata
     id="metadata4254">
    <rdf:RDF>
      <cc:Work>
        <dc:format>image/svg+xml</dc:format>
        <dc:type
           rdf:resource="http://purl.org/dc/dcmitype/StillImage" />
        <cc:license
           rdf:resource="http://creativecommons.org/licenses/publicdomain/" />
        <dc:publisher>
          <cc:Agent
             rdf:about="http://openclipart.org/">
            <dc:title>Openclipart</dc:title>
          </cc:Agent>
        </dc:publisher>
        <dc:title></dc:title>
        <dc:date>2006-08-30T00:03:02</dc:date>
        <dc:description>I removed the wrench and uploaded just the hammer from this. Its a cheap remix, but explains the concept visually :)</dc:description>
        <dc:source>https://openclipart.org/detail/73/hammer-by-rejon</dc:source>
        <dc:creator>
          <cc:Agent>
            <dc:title>rejon</dc:title>
          </cc:Agent>
        </dc:creator>
        <dc:subject>
          <rdf:Bag>
            <rdf:li>blue</rdf:li>
            <rdf:li>colour</rdf:li>
            <rdf:li>construction</rdf:li>
            <rdf:li>contour</rdf:li>
            <rdf:li>glossy</rdf:li>
            <rdf:li>hammer</rdf:li>
            <rdf:li>icon</rdf:li>
            <rdf:li>metallic</rdf:li>
            <rdf:li>remix</rdf:li>
            <rdf:li>stylized</rdf:li>
            <rdf:li>tool</rdf:li>
            <rdf:li>work</rdf:li>
          </rdf:Bag>
        </dc:subject>
      </cc:Work>
      <cc:License
         rdf:about="http://creativecommons.org/licenses/publicdomain/">
        <cc:permits
           rdf:resource="http://creativecommons.org/ns#Reproduction" />
        <cc:permits
           rdf:resource="http://creativecommons.org/ns#Distribution" />
        <cc:permits
           rdf:resource="http://creativecommons.org/ns#DerivativeWorks" />
      </cc:License>
    </rdf:RDF>
  </metadata>
  <g
     id="g5320"
     transform="matrix(2.4451722,0,0,2.4451722,-214.69131,-21.691198)">
    <ellipse
       style="color:#000000;opacity:0.47368002;fill:url(#radialGradient3564)"
       id="path3556"
       cx="112.87946"
       cy="52.292965"
       rx="22.357456"
       ry="8.3749571" />
    <path
       d="m 92.438207,15.160221 c 1.7298,-0.87804 4.1257,0.0035 5.0117,1.5573 l 4.170003,9.4847 c 0.886,1.554 0.634,3.369 -0.566,4.071 -1.199003,0.701 -2.878003,0.015 -3.764003,-1.539 l -5.9182,-8.356 c -0.8859,-1.5538 -0.629,-4.3573 1.0665,-5.218 z"
       style="fill:url(#linearGradient11653);fill-rule:evenodd;stroke:#8f5902;stroke-width:1.00629997;stroke-linecap:round"
       sodipodi:nodetypes="cccsccz"
       id="path7966"
       inkscape:connector-curvature="0" />
    <path
       d="m 92.968207,16.118121 c 1.4219,-0.7858 2.8207,-0.1927 3.6957,1.3394 l 4.448003,10.087 -2.432003,1.42 -6.2964,-8.8205 c -0.8746,-1.5321 -0.8763,-3.2182 0.5847,-4.0256 z"
       style="opacity:0.42308003;fill:none;stroke:url(#linearGradient2249);stroke-width:1.00569999;stroke-linecap:round"
       sodipodi:nodetypes="cccccz"
       id="path14575"
       inkscape:connector-curvature="0" />
    <path
       d="m 100.30291,36.176221 c -0.796003,4.286 0.634,13.952 6.259,19.694 4.347,0.141 13.99,-3.418 20.531,-10.197 -9.236,-4.517 -15.536,-15.723 -20.435,-13.283 l -6.355,3.786 z"
       style="fill:url(#radialGradient9318);fill-rule:evenodd;stroke:#c4a000"
       sodipodi:nodetypes="ccccc"
       id="path7968"
       inkscape:connector-curvature="0" />
    <path
       d="m 101.85991,37.749221 c 2.349,6.271 2.49,12.789 7.184,17.92"
       style="fill:none;stroke:url(#linearGradient7988);stroke-linecap:round"
       sodipodi:nodetypes="cc"
       id="path7972"
       inkscape:connector-curvature="0" />
    <path
       d="m 101.44091,36.796221 c -0.912,0.508 -0.161,12.52 5.584,18 7.386,-0.186 15.524,-6.396 18.393,-8.837 -9.499,-5.984 -14.925,-14.762 -18.481,-12.574 l -5.496,3.411 z"
       style="opacity:0.46154001;fill:none;stroke:#ffffff"
       sodipodi:nodetypes="ccccc"
       id="path7970"
       inkscape:connector-curvature="0" />
    <path
       d="m 109.36991,35.655221 c 0.867,-0.749 5.751,6.088 14.999,12.382"
       style="fill:none;stroke:url(#linearGradient7990);stroke-linecap:round"
       sodipodi:nodetypes="cc"
       id="path7974"
       inkscape:connector-curvature="0" />
    <path
       d="m 103.53491,36.246221 c 3.712,5.347 2.963,12.424 8.841,18.081"
       style="fill:none;stroke:url(#linearGradient7992);stroke-linecap:round"
       sodipodi:nodetypes="cc"
       id="path7976"
       inkscape:connector-curvature="0" />
    <path
       d="m 108.50591,36.158221 c 0,0 8.177,13.071 11.182,15.104"
       style="fill:none;stroke:url(#linearGradient7994);stroke-linecap:round"
       sodipodi:nodetypes="cc"
       id="path7978"
       inkscape:connector-curvature="0" />
    <path
       d="m 104.82191,35.583221 c 3.447,2.917 8.703,14.163 11.31,17.477"
       style="fill:none;stroke:url(#linearGradient7996);stroke-linecap:round"
       sodipodi:nodetypes="cc"
       id="path7980"
       inkscape:connector-curvature="0" />
    <path
       d="m 94.030807,31.444221 11.462003,-6.559 c 0.598,2.383 -0.342,3.241 1.796,7.148 l -7.911003,4.526 c -1.453,-3.477 -3.565,-3.41 -5.3471,-5.115 z"
       style="fill:url(#linearGradient8582);fill-rule:evenodd;stroke:#c4a000;stroke-width:1.01040006;stroke-linecap:round;stroke-linejoin:round"
       sodipodi:nodetypes="ccccc"
       id="path7982"
       inkscape:connector-curvature="0" />
    <path
       d="m 99.564907,34.628221 c -0.814,-1.422 -2.562,-2.237 -3.679,-3.128 l 8.758003,-4.933 c -0.02,1.481 0.566,3.088 0.875,4.518 l -5.954003,3.543 z"
       style="opacity:0.24725001;fill:none;stroke:#ffffff"
       sodipodi:nodetypes="ccccc"
       id="path11655"
       inkscape:connector-curvature="0" />
    <rect
       x="65.960365"
       y="78.525574"
       width="13.014939"
       height="3.4599137"
       ry="1.0000039"
       rx="0.99999529"
       transform="matrix(0.86602405,-0.50000234,0.49999801,0.86602655,0,0)"
       style="fill:url(#linearGradient15309);fill-rule:evenodd;stroke:#690000;stroke-linecap:round"
       id="rect7984" />
    <circle
       transform="matrix(0.96592766,0.2588122,-0.2588122,0.96592766,0,0)"
       style="fill:#ffffff;fill-rule:evenodd;stroke:#8f5902;stroke-width:0.99998015;stroke-linecap:round;stroke-linejoin:round"
       id="path10193"
       cx="95.495995"
       cy="-7.0525122"
       r="1.2968413" />
    <path
       d="m 113.25691,53.937221 c 0,0 1.506,-0.5 2.176,-0.942 -1.238,-1.944 -3.403,-5.895 -5.403,-8.875 1.193,6.54 3.227,9.817 3.227,9.817 z"
       style="opacity:0.31731005;fill:#ffffff;fill-rule:evenodd"
       sodipodi:nodetypes="cccc"
       id="path3558"
       inkscape:connector-curvature="0" />
    <path
       d="m 116.66391,52.440221 2.026,-1.085 c -1.945,-1.856 -7.469,-10.116 -7.469,-10.116 l 5.443,11.201 z"
       style="opacity:0.31731005;fill:#ffffff;fill-rule:evenodd"
       sodipodi:nodetypes="cccc"
       id="path3560"
       inkscape:connector-curvature="0" />
    <path
       d="m 121.18091,49.770221 2.436,-1.744 c -3.182,-1.326 -11.587,-9.88 -11.587,-9.88 2.383,3.012 6.768,8.612 9.151,11.624 z"
       style="opacity:0.31731005;fill:#ffffff;fill-rule:evenodd"
       sodipodi:nodetypes="cccc"
       id="path3562"
       inkscape:connector-curvature="0" />
    <path
       d="m 124.67591,47.299221 1.692,-1.409 c -3.315,-1.503 -12.496,-9.912 -12.496,-9.912 0,0 6.075,9.2 10.804,11.321 z"
       style="opacity:0.31731005;fill:#ffffff;fill-rule:evenodd"
       sodipodi:nodetypes="cccc"
       id="path3565"
       inkscape:connector-curvature="0" />
    <path
       d="m 109.89791,54.954221 c 0,0 1.197,-0.28 2.044,-0.456 -1.459,-1.237 -3.801,-4.437 -5.094,-8.611 0.53,6.895 3.05,9.067 3.05,9.067 z"
       style="opacity:0.31731005;fill:#ffffff;fill-rule:evenodd"
       sodipodi:nodetypes="cccc"
       id="path2265"
       inkscape:connector-curvature="0" />
    <path
       d="m 106.89291,55.351221 1.248,-0.013 c -2.298,-2.519 -3.138,-5.366 -4.431,-9.406 -0.133,4.684 3.183,9.419 3.183,9.419 z"
       style="opacity:0.31731005;fill:#ffffff;fill-rule:evenodd"
       sodipodi:nodetypes="cccc"
       id="path2267"
       inkscape:connector-curvature="0" />
  </g>
</svg>
